<svg xmlns="http://www.w3.org/2000/svg" viewBox="0 0 780 420" width="780" height="420">
<style>.b{rx:8;stroke-width:2}.t{font-family:Arial;font-weight:700;font-size:12px;fill:#fff}.l{font-family:Arial;font-size:11px;fill:#333}.s{font-family:Arial;font-weight:900;font-size:15px;fill:#333}</style>
<rect width="780" height="420" fill="#fafafa" rx="12"/>
<text x="390" y="28" text-anchor="middle" font-family="Arial" font-weight="900" font-size="18" fill="#222">MiniAgent Architecture</text>
<text x="20" y="58" class="s">Training Pipeline</text>
<rect x="20" y="66" width="105" height="38" class="b" fill="#4CAF50" stroke="#388E3C"/><text x="72" y="90" text-anchor="middle" class="t">Pretrain</text>
<rect x="140" y="66" width="85" height="38" class="b" fill="#2196F3" stroke="#1976D2"/><text x="182" y="90" text-anchor="middle" class="t">SFT</text>
<rect x="240" y="66" width="85" height="38" class="b" fill="#FF9800" stroke="#F57C00"/><text x="282" y="90" text-anchor="middle" class="t">LoRA</text>
<rect x="340" y="66" width="85" height="38" class="b" fill="#9C27B0" stroke="#7B1FA2"/><text x="382" y="90" text-anchor="middle" class="t">DPO</text>
<rect x="440" y="66" width="85" height="38" class="b" fill="#E91E63" stroke="#C2185B"/><text x="482" y="90" text-anchor="middle" class="t">GRPO</text>
<rect x="540" y="66" width="105" height="38" class="b" fill="#00BCD4" stroke="#0097A7"/><text x="592" y="90" text-anchor="middle" class="t">Distill</text>
<text x="20" y="135" class="s">Model (26M–145M)</text>
<rect x="20" y="143" width="735" height="45" class="b" fill="#263238" stroke="#455A64"/>
<text x="40" y="170" class="t">Embed → [RMSNorm → GQA+RoPE → SwiGLU/MoE] × N → RMSNorm → LM Head</text>
<text x="390" y="200" text-anchor="middle" font-family="Arial" font-size="10" fill="#888">Compatible: vLLM · Ollama · llama.cpp · transformers · FastGPT · Open-WebUI · Dify</text>
<text x="20" y="230" class="s">MCP Servers (14 platforms · 80+ tools)</text>
<rect x="20" y="238" width="90" height="34" class="b" fill="#4285F4" stroke="#3367D6"/><text x="65" y="260" text-anchor="middle" class="t" font-size="10">Google Ads</text>
<rect x="118" y="238" width="90" height="34" class="b" fill="#1877F2" stroke="#1565C0"/><text x="163" y="260" text-anchor="middle" class="t" font-size="10">Meta Ads</text>
<rect x="216" y="238" width="90" height="34" class="b" fill="#00A4EF" stroke="#0078D4"/><text x="261" y="260" text-anchor="middle" class="t" font-size="10">Microsoft</text>
<rect x="314" y="238" width="90" height="34" class="b" fill="#FF9900" stroke="#E68A00"/><text x="359" y="260" text-anchor="middle" class="t" font-size="10">Amazon</text>
<rect x="412" y="238" width="90" height="34" class="b" fill="#FF4500" stroke="#CC3700"/><text x="457" y="260" text-anchor="middle" class="t" font-size="10">Reddit</text>
<rect x="510" y="238" width="90" height="34" class="b" fill="#0A66C2" stroke="#004182"/><text x="555" y="260" text-anchor="middle" class="t" font-size="10">LinkedIn</text>
<rect x="608" y="238" width="78" height="34" class="b" fill="#4DC71F" stroke="#3DA818"/><text x="647" y="260" text-anchor="middle" class="t" font-size="10">TradeDesk</text>
<rect x="694" y="238" width="62" height="34" class="b" fill="#666" stroke="#444"/><text x="725" y="260" text-anchor="middle" class="t" font-size="10">+7 more</text>
<text x="20" y="310" class="s">Agent Skills (Claude Code · Codex · Gemini CLI · Cursor)</text>
<rect x="20" y="318" width="130" height="32" class="b" fill="#7C4DFF" stroke="#651FFF"/><text x="85" y="339" text-anchor="middle" class="t" font-size="11">Analysis</text>
<rect x="160" y="318" width="130" height="32" class="b" fill="#7C4DFF" stroke="#651FFF"/><text x="225" y="339" text-anchor="middle" class="t" font-size="11">Audit (7-dim)</text>
<rect x="300" y="318" width="130" height="32" class="b" fill="#7C4DFF" stroke="#651FFF"/><text x="365" y="339" text-anchor="middle" class="t" font-size="11">Write (CEP)</text>
<rect x="440" y="318" width="130" height="32" class="b" fill="#7C4DFF" stroke="#651FFF"/><text x="505" y="339" text-anchor="middle" class="t" font-size="11">PPC Math</text>
<rect x="580" y="318" width="130" height="32" class="b" fill="#7C4DFF" stroke="#651FFF"/><text x="645" y="339" text-anchor="middle" class="t" font-size="11">MCP Setup</text>
<text x="20" y="386" class="s">Eval Benchmarks</text>
<rect x="20" y="392" width="735" height="22" class="b" fill="#F5F5F5" stroke="#DDD"/>
<text x="390" y="407" text-anchor="middle" font-family="Arial" font-size="11" fill="#555">Ad-Bench · GAQL-Eval · PPC-Math · Campaign-Struct · Cross-Platform · Audit-Eval</text>
</svg>
